<svg width="15" height="17" viewBox="0 0 15 17" fill="none" xmlns="http://www.w3.org/2000/svg">
<path d="M7.68928 0.697021C4.87531 0.697021 2.52832 2.96378 2.52832 5.85798C2.52832 6.95905 2.85918 7.94088 3.49417 8.86091L7.29432 14.7907C7.47868 15.079 7.90025 15.0784 8.08423 14.7907L11.9009 8.84073C12.5222 7.9624 12.8502 6.93105 12.8502 5.85798C12.8502 3.01223 10.535 0.697021 7.68928 0.697021ZM7.68928 8.20387C6.39582 8.20387 5.34339 7.15144 5.34339 5.85798C5.34339 4.56452 6.39582 3.51209 7.68928 3.51209C8.98274 3.51209 10.0352 4.56452 10.0352 5.85798C10.0352 7.15144 8.98274 8.20387 7.68928 8.20387Z" fill="#00C0A9"/>
<path d="M11.3569 11.4786L8.99438 15.1722C8.38286 16.1256 6.99181 16.1225 6.38322 15.1731L4.01688 11.4796C1.93485 11.961 0.651367 12.8428 0.651367 13.8966C0.651367 15.7252 4.27743 16.7117 7.68904 16.7117C11.1006 16.7117 14.7267 15.7252 14.7267 13.8966C14.7267 12.842 13.4414 11.9597 11.3569 11.4786Z" fill="#00C0A9"/>
</svg>
