<svg width="56" height="56" viewBox="0 0 56 56" fill="none" xmlns="http://www.w3.org/2000/svg">
<path d="M27.9981 55.4058C43.1307 55.4058 55.3981 43.1384 55.3981 28.0058C55.3981 12.8732 43.1307 0.605835 27.9981 0.605835C12.8655 0.605835 0.598145 12.8732 0.598145 28.0058C0.598145 43.1384 12.8655 55.4058 27.9981 55.4058Z" fill="#470137"/>
<path d="M28.6107 18.7485L23.2897 27.891L29.0235 37.6247C29.1407 37.8229 29.0902 37.9203 28.8757 37.9203H25.2995C25.2109 37.9296 25.1216 37.9121 25.0432 37.87C24.9647 37.8279 24.9008 37.7631 24.8597 37.6841L20.8238 30.2811H20.7932L16.8636 37.6841C16.8275 37.7546 16.7728 37.8138 16.7055 37.8554C16.6381 37.897 16.5607 37.9195 16.4815 37.9203H13.0423C12.8458 37.9203 12.8079 37.8229 12.9251 37.6247L18.5634 28.1578L13.1919 18.6891C13.0747 18.5322 13.1144 18.4529 13.309 18.4529H16.8925C16.9693 18.4474 17.0461 18.464 17.1138 18.5008C17.1815 18.5375 17.2373 18.5928 17.2746 18.6602L21.0599 25.9749H21.0888L24.8543 18.6602C24.8914 18.5931 24.9469 18.538 25.0143 18.5013C25.0816 18.4646 25.1581 18.4478 25.2346 18.4529H28.4936C28.7099 18.4529 28.7477 18.5521 28.6107 18.7485Z" fill="#FF61F6"/>
<path d="M37.353 38.2808C35.2621 38.2808 33.6524 37.6878 32.4033 36.5035C31.1541 35.3193 30.5269 33.569 30.5269 31.251C30.5269 29.1444 31.1986 27.414 32.5421 26.0597C33.2295 25.3482 34.0561 24.7857 34.9703 24.4074C35.8845 24.0291 36.8667 23.8429 37.8559 23.8606C38.2987 23.8527 38.7407 23.8999 39.1718 24.0012V17.9014C39.1685 17.8786 39.1706 17.8553 39.1779 17.8334C39.1851 17.8115 39.1973 17.7915 39.2136 17.7751C39.2298 17.7587 39.2496 17.7463 39.2714 17.7388C39.2933 17.7313 39.3165 17.729 39.3394 17.732H42.6345C42.7264 17.732 42.7733 17.7879 42.7733 17.9014V34.9804C42.7733 35.7014 43.0851 36.3161 43.1338 36.8424C43.1437 36.8945 43.1351 36.9485 43.1094 36.9949C43.0837 37.0413 43.0426 37.0773 42.9932 37.0966C41.3763 37.8861 39.2565 38.2808 37.353 38.2808ZM39.179 35.4887V26.7699C39.0618 26.5644 38.4418 26.3841 37.8073 26.3841C37.2821 26.3705 36.7606 26.4743 36.2807 26.6879C35.8007 26.9015 35.3745 27.2196 35.0332 27.6189C34.2018 28.5926 33.7533 29.8356 33.7714 31.1158C33.7714 32.6948 34.3122 33.7763 35.017 34.528C35.3501 34.91 35.7604 35.2171 36.2209 35.429C36.6813 35.6409 37.1815 35.7528 37.6883 35.7573C38.3607 35.7573 39.0186 35.6564 39.179 35.4887Z" fill="#FF61F6"/>
</svg>
