<svg width="18" height="14" viewBox="0 0 18 14" fill="none" xmlns="http://www.w3.org/2000/svg">
<path d="M10.496 8.81333C10.0694 9.09771 9.57393 9.24804 9.06308 9.24804C8.55226 9.24804 8.05677 9.09771 7.63021 8.81333L0.604394 4.12931C0.565414 4.10333 0.527439 4.07624 0.490234 4.04837V11.7236C0.490234 12.6036 1.20436 13.302 2.06861 13.302H16.0575C16.9375 13.302 17.6359 12.5879 17.6359 11.7236V4.04834C17.5986 4.07627 17.5606 4.10343 17.5215 4.12945L10.496 8.81333Z" fill="#00C0A9"/>
<path d="M1.16166 3.29348L8.18747 7.97754C8.45343 8.15485 8.75824 8.24349 9.06304 8.24349C9.36788 8.24349 9.67272 8.15482 9.93868 7.97754L16.9645 3.29348C17.3849 3.01336 17.6359 2.54453 17.6359 2.03853C17.6359 1.16849 16.9281 0.460693 16.0581 0.460693H2.06807C1.19806 0.460727 0.490234 1.16852 0.490234 2.03937C0.490234 2.54453 0.741258 3.01336 1.16166 3.29348Z" fill="#00C0A9"/>
</svg>
