<svg width="17" height="17" viewBox="0 0 17 17" fill="none" xmlns="http://www.w3.org/2000/svg">
<path d="M12.8266 11.0789C12.3034 10.5624 11.6502 10.5624 11.1303 11.0789C10.7338 11.4721 10.3372 11.8654 9.9473 12.2653C9.84066 12.3752 9.75068 12.3986 9.62071 12.3252C9.36411 12.1853 9.09084 12.072 8.84424 11.9187C7.69453 11.1955 6.73144 10.2658 5.87832 9.21936C5.4551 8.6995 5.07852 8.14297 4.81526 7.51646C4.76194 7.38983 4.77193 7.30651 4.87524 7.20321C5.27181 6.81997 5.65838 6.42674 6.04828 6.0335C6.59148 5.48697 6.59148 4.84713 6.04495 4.29727C5.73503 3.98402 5.4251 3.67743 5.11518 3.36418C4.79526 3.04426 4.47868 2.721 4.15542 2.40442C3.63222 1.89455 2.97905 1.89455 2.45919 2.40775C2.05929 2.80098 1.67605 3.20422 1.26949 3.59079C0.892915 3.94736 0.702963 4.38392 0.662973 4.89379C0.599656 5.72358 0.802938 6.50672 1.08953 7.26986C1.67605 8.84946 2.56916 10.2524 3.65222 11.5388C5.11518 13.2783 6.86141 14.6547 8.90423 15.6477C9.82399 16.0943 10.7771 16.4375 11.8135 16.4942C12.5266 16.5342 13.1465 16.3542 13.643 15.7977C13.9829 15.4178 14.3662 15.0712 14.7261 14.708C15.2593 14.1681 15.2626 13.5149 14.7328 12.9817C14.0996 12.3452 13.4631 11.7121 12.8266 11.0789Z" fill="#00C0A9"/>
<path d="M12.1905 8.42282L13.4202 8.21288C13.227 7.08316 12.6938 6.06009 11.884 5.24696C11.0275 4.39051 9.94445 3.85065 8.75141 3.68402L8.57812 4.92038C9.50123 5.05034 10.341 5.4669 11.0042 6.13007C11.6307 6.75658 12.0406 7.54971 12.1905 8.42282Z" fill="#00C0A9"/>
<path d="M14.1132 3.07754C12.6935 1.6579 10.8973 0.76146 8.9145 0.484863L8.74121 1.72122C10.4541 1.96116 12.0071 2.73763 13.2334 3.96065C14.3964 5.12369 15.1596 6.59332 15.4362 8.20958L16.6659 7.99963C16.3426 6.12677 15.4595 4.4272 14.1132 3.07754Z" fill="#00C0A9"/>
</svg>
