<svg width="26" height="26" viewBox="0 0 26 26" fill="none" xmlns="http://www.w3.org/2000/svg">
<path d="M12.667 4.72886C13.0693 4.72886 13.3955 4.40269 13.3955 4.00036V1.65942C13.3955 1.25709 13.0693 0.930908 12.667 0.930908C12.2647 0.930908 11.9385 1.25709 11.9385 1.65942V4.00036C11.9385 4.40269 12.2647 4.72886 12.667 4.72886Z" fill="#00C0A9"/>
<path d="M12.667 21.9993C12.2647 21.9993 11.9385 22.3254 11.9385 22.7278V25.0687C11.9385 25.471 12.2647 25.7972 12.667 25.7972C13.0693 25.7972 13.3955 25.471 13.3955 25.0687V22.7278C13.3955 22.3254 13.0693 21.9993 12.667 21.9993Z" fill="#00C0A9"/>
<path d="M24.3717 12.6355H22.0308C21.6284 12.6355 21.3022 12.9617 21.3022 13.364C21.3022 13.7663 21.6284 14.0925 22.0308 14.0925H24.3717C24.774 14.0925 25.1002 13.7663 25.1002 13.364C25.1002 12.9617 24.774 12.6355 24.3717 12.6355Z" fill="#00C0A9"/>
<path d="M4.03184 13.364C4.03184 12.9617 3.70566 12.6355 3.30333 12.6355H0.962395C0.560064 12.6355 0.233887 12.9617 0.233887 13.364C0.233887 13.7663 0.560064 14.0925 0.962395 14.0925H3.30333C3.70566 14.0925 4.03184 13.7663 4.03184 13.364Z" fill="#00C0A9"/>
<path d="M19.8032 7.25779L21.4582 5.60277C21.7427 5.31826 21.7427 4.85702 21.4582 4.57251C21.1738 4.288 20.7125 4.288 20.428 4.57251L18.773 6.22754C18.4884 6.51204 18.4884 6.97328 18.773 7.25779C19.0574 7.54225 19.5187 7.54239 19.8032 7.25779Z" fill="#00C0A9"/>
<path d="M5.53051 19.4703L3.87549 21.1253C3.59098 21.4098 3.59098 21.871 3.87549 22.1555C4.1599 22.44 4.62124 22.4401 4.90575 22.1555L6.56077 20.5005C6.84528 20.216 6.84528 19.7548 6.56077 19.4703C6.27626 19.1857 5.81497 19.1857 5.53051 19.4703Z" fill="#00C0A9"/>
<path d="M19.8032 19.4702C19.5187 19.1857 19.0575 19.1857 18.773 19.4702C18.4884 19.7547 18.4884 20.216 18.773 20.5005L20.428 22.1555C20.7124 22.44 21.1737 22.4401 21.4582 22.1555C21.7427 21.871 21.7427 21.4097 21.4582 21.1252L19.8032 19.4702Z" fill="#00C0A9"/>
<path d="M5.53056 7.25779C5.81497 7.54225 6.27631 7.54235 6.56082 7.25779C6.84532 6.97328 6.84532 6.51204 6.56082 6.22754L4.90575 4.57251C4.62129 4.288 4.16 4.288 3.87549 4.57251C3.59098 4.85702 3.59098 5.31826 3.87549 5.60277L5.53056 7.25779Z" fill="#00C0A9"/>
<path d="M12.6668 7.17334C9.25324 7.17334 6.47607 9.95051 6.47607 13.3641C6.47607 16.7776 9.25324 19.5548 12.6668 19.5548C16.0803 19.5548 18.8575 16.7776 18.8575 13.3641C18.8575 9.95051 16.0803 7.17334 12.6668 7.17334ZM12.6668 18.0978C10.0566 18.0978 7.93309 15.9742 7.93309 13.3641C7.93309 10.7539 10.0566 8.63036 12.6668 8.63036C15.2769 8.63036 17.4005 10.7539 17.4005 13.3641C17.4005 15.9742 15.2769 18.0978 12.6668 18.0978Z" fill="#00C0A9"/>
</svg>
