<svg width="16" height="20" viewBox="0 0 16 20" fill="none" xmlns="http://www.w3.org/2000/svg">
<path fill-rule="evenodd" clip-rule="evenodd" d="M8.07771 6.97925C8.43183 6.97925 8.7189 7.26632 8.7189 7.62044V11.7991C8.7189 12.1532 8.43183 12.4402 8.07771 12.4402C7.72359 12.4402 7.43652 12.1532 7.43652 11.7991V7.62044C7.43652 7.26632 7.72359 6.97925 8.07771 6.97925Z" fill="#7D89A6"/>
<path fill-rule="evenodd" clip-rule="evenodd" d="M5.91535 9.63701C6.16575 9.38662 6.57173 9.38662 6.82213 9.63703L8.07723 10.8922L9.33237 9.63702C9.58277 9.38662 9.98875 9.38662 10.2392 9.63702C10.4896 9.88742 10.4896 10.2934 10.2392 10.5438L8.07721 12.7057L5.91533 10.5438C5.66494 10.2934 5.66494 9.88741 5.91535 9.63701Z" fill="#7D89A6"/>
<path fill-rule="evenodd" clip-rule="evenodd" d="M1.94005 1.70059C1.72431 1.70059 1.54508 1.87982 1.54508 2.09557V17.9647C1.54508 18.1804 1.72433 18.3596 1.94005 18.3596H6.48388C6.838 18.3596 7.12507 18.6467 7.12507 19.0008C7.12507 19.355 6.838 19.642 6.48388 19.642H1.94005C1.01609 19.642 0.262695 18.8886 0.262695 17.9647V2.09557C0.262695 1.17154 1.01611 0.418213 1.94005 0.418213H14.2151C15.1391 0.418213 15.8925 1.17156 15.8925 2.09557V8.51978C15.8925 8.8739 15.6054 9.16097 15.2513 9.16097C14.8971 9.16097 14.6101 8.8739 14.6101 8.51978V2.09557C14.6101 1.8798 14.4309 1.70059 14.2151 1.70059H1.94005Z" fill="#7D89A6"/>
<path fill-rule="evenodd" clip-rule="evenodd" d="M15.2513 7.87866C15.6055 7.87866 15.8925 8.16573 15.8925 8.51985V13.7008C15.8925 14.0977 15.779 14.5248 15.6202 14.8951C15.4615 15.2653 15.2305 15.6421 14.9431 15.9158L11.966 18.7507C11.966 18.7507 11.966 18.7507 11.966 18.7507C11.9389 18.7766 11.9111 18.8034 11.8825 18.831C11.5227 19.1788 11.0435 19.6421 10.2373 19.6421H6.48396C6.12984 19.6421 5.84277 19.355 5.84277 19.0009C5.84277 18.6468 6.12984 18.3597 6.48396 18.3597H10.2373C10.5069 18.3597 10.6256 18.2564 11.0817 17.822L11.0817 17.822L14.0588 14.9871L14.0588 14.9871C14.1841 14.8678 14.3283 14.6542 14.4416 14.3898C14.5549 14.1255 14.6102 13.8738 14.6102 13.7008V8.51985C14.6102 8.16573 14.8972 7.87866 15.2513 7.87866Z" fill="#7D89A6"/>
<path fill-rule="evenodd" clip-rule="evenodd" d="M11.5338 15.1144C11.3181 15.1144 11.1388 15.2936 11.1388 15.5094V18.8605C11.1388 19.2146 10.8518 19.5017 10.4976 19.5017C10.1435 19.5017 9.85645 19.2146 9.85645 18.8605V15.5094C9.85645 14.5854 10.6098 13.832 11.5338 13.832H15.0977C15.4518 13.832 15.7389 14.1191 15.7389 14.4732C15.7389 14.8273 15.4518 15.1144 15.0977 15.1144H11.5338Z" fill="#7D89A6"/>
</svg>
