<svg width="55" height="55" viewBox="0 0 55 55" fill="none" xmlns="http://www.w3.org/2000/svg">
<path d="M27.4986 54.9525C42.6312 54.9525 54.8986 42.6851 54.8986 27.5525C54.8986 12.4199 42.6312 0.152466 27.4986 0.152466C12.366 0.152466 0.0986328 12.4199 0.0986328 27.5525C0.0986328 42.6851 12.366 54.9525 27.4986 54.9525Z" fill="#2B3854"/>
<path d="M29.9551 28.0059C29.9551 25.3083 32.1419 23.1215 34.8394 23.1215C37.537 23.1215 39.7238 25.3084 39.7238 28.0059C39.7238 30.7035 37.5369 32.8902 34.8394 32.8902C32.1418 32.8902 29.9551 30.7034 29.9551 28.0059Z" fill="#00BCFF"/>
<path d="M20.1865 37.7746C20.1865 35.077 22.3733 32.8902 25.0709 32.8902L27.6738 31.516L29.9552 32.8902V37.7746C29.9552 40.4722 27.7684 42.6589 25.0709 42.6589C22.3733 42.6589 20.1865 40.4721 20.1865 37.7746Z" fill="#00CF7F"/>
<path d="M29.9557 13.3528L27.2979 17.9702L29.9557 23.1215H34.7715C37.4691 23.1215 39.6558 20.9347 39.6558 18.2371C39.6558 15.5396 37.469 13.3528 34.7715 13.3528H29.9557Z" fill="#FF7361"/>
<path d="M20.1182 18.2371C20.1182 20.9347 22.305 23.1215 25.0025 23.1215L27.5935 24.1222L29.9553 23.1215V13.3528H25.0024C22.305 13.3528 20.1182 15.5396 20.1182 18.2371Z" fill="#FF4D12"/>
<path d="M20.1865 28.0059C20.1865 30.7034 22.3733 32.8902 25.0709 32.8902H29.9552V23.1215H25.0709C22.3733 23.1215 20.1865 25.3083 20.1865 28.0059Z" fill="#B659FF"/>
</svg>
