<svg width="55" height="55" viewBox="0 0 55 55" fill="none" xmlns="http://www.w3.org/2000/svg">
<path d="M27.4908 54.9537C42.6234 54.9537 54.8908 42.6863 54.8908 27.5537C54.8908 12.4211 42.6234 0.153687 27.4908 0.153687C12.3582 0.153687 0.0908203 12.4211 0.0908203 27.5537C0.0908203 42.6863 12.3582 54.9537 27.4908 54.9537Z" fill="#2B3854"/>
<path d="M27.4912 7.90759C16.165 7.90759 6.99121 16.9276 6.99121 28.0523C6.99121 36.9544 12.8645 44.5035 21.0081 47.1651C22.0331 47.3547 22.4089 46.7312 22.4089 46.1965C22.4089 45.7181 22.3918 44.4506 22.3833 42.7713C16.6809 43.9859 15.4782 40.0687 15.4782 40.0687C14.5455 37.7436 13.1976 37.1218 13.1976 37.1218C11.3406 35.873 13.3411 35.8986 13.3411 35.8986C15.3996 36.0387 16.481 37.9743 16.481 37.9743C18.3089 41.0544 21.2797 40.1643 22.4516 39.6501C22.6361 38.3467 23.164 37.4601 23.75 36.9561C19.1973 36.4521 14.4122 34.7199 14.4122 27.0016C14.4122 24.803 15.2066 23.0058 16.522 21.5965C16.2914 21.0874 15.5995 19.0391 16.7014 16.2648C16.7014 16.2648 18.4183 15.7249 22.3389 18.3301C23.9789 17.8826 25.7214 17.6605 27.4639 17.6502C29.2064 17.6605 30.9489 17.8826 32.5889 18.3301C36.4839 15.7249 38.2008 16.2648 38.2008 16.2648C39.3026 19.0391 38.6108 21.0874 38.4058 21.5965C39.7126 23.0058 40.507 24.803 40.507 27.0016C40.507 34.7404 35.7151 36.4436 31.1539 36.939C31.8714 37.5438 32.5376 38.7789 32.5376 40.6666C32.5376 43.3623 32.512 45.5285 32.512 46.1828C32.512 46.7107 32.8708 47.3411 33.9214 47.1395C42.1231 44.495 47.9912 36.9407 47.9912 28.0523C47.9912 16.9276 38.8123 7.90759 27.4912 7.90759Z" fill="white"/>
</svg>
