<svg width="20" height="20" viewBox="0 0 20 20" fill="none" xmlns="http://www.w3.org/2000/svg">
<path d="M9.98103 0.162598C4.46651 0.162598 0 4.55425 0 9.97062C0 14.3049 2.85957 17.9804 6.82453 19.2763C7.32358 19.3686 7.50657 19.065 7.50657 18.8047C7.50657 18.5718 7.49825 17.9546 7.49409 17.137C4.7177 17.7284 4.13215 15.8212 4.13215 15.8212C3.67801 14.6892 3.02176 14.3864 3.02176 14.3864C2.11764 13.7784 3.09162 13.7909 3.09162 13.7909C4.09389 13.8591 4.62039 14.8014 4.62039 14.8014C5.51036 16.3011 6.95678 15.8678 7.52736 15.6174C7.61719 14.9828 7.8742 14.5511 8.15949 14.3057C5.94287 14.0604 3.61313 13.217 3.61313 9.4591C3.61313 8.38863 3.9999 7.51363 4.64035 6.82743C4.52806 6.57957 4.1912 5.5823 4.72768 4.23153C4.72768 4.23153 5.56359 3.9687 7.47247 5.23712C8.27095 5.0192 9.11934 4.91107 9.96772 4.90608C10.8161 4.91107 11.6645 5.0192 12.463 5.23712C14.3594 3.9687 15.1953 4.23153 15.1953 4.23153C15.7318 5.5823 15.3949 6.57957 15.2951 6.82743C15.9314 7.51363 16.3182 8.38863 16.3182 9.4591C16.3182 13.2269 13.9851 14.0562 11.7643 14.2974C12.1136 14.5918 12.438 15.1932 12.438 16.1123C12.438 17.4248 12.4256 18.4795 12.4256 18.798C12.4256 19.055 12.6002 19.3619 13.1117 19.2638C17.105 17.9762 19.9621 14.2982 19.9621 9.97062C19.9621 4.55425 15.4931 0.162598 9.98103 0.162598Z" fill="#7D89A6"/>
</svg>
