<svg width="20" height="20" viewBox="0 0 20 20" fill="none" xmlns="http://www.w3.org/2000/svg">
<path d="M14.0176 0.781982H5.4515C2.66358 0.781982 0.395508 3.05005 0.395508 5.83797V14.4042C0.395508 17.192 2.66358 19.4601 5.4515 19.4601H14.0178C16.8055 19.4601 19.0736 17.192 19.0736 14.4042V5.83797C19.0736 3.05005 16.8055 0.781982 14.0176 0.781982ZM17.9786 14.4042C17.9786 16.5882 16.2017 18.3651 14.0176 18.3651H5.4515C3.26736 18.3651 1.4905 16.5882 1.4905 14.4042V5.83797C1.4905 3.65384 3.26736 1.87697 5.4515 1.87697H14.0178C16.2017 1.87697 17.9786 3.65384 17.9786 5.83797V14.4042Z" fill="#7D89A6"/>
<path d="M9.7341 5.01392C6.91797 5.01392 4.62695 7.30493 4.62695 10.1211C4.62695 12.9372 6.91797 15.2282 9.7341 15.2282C12.5502 15.2282 14.8413 12.9372 14.8413 10.1211C14.8413 7.30493 12.5502 5.01392 9.7341 5.01392ZM9.7341 14.1332C7.52189 14.1332 5.72194 12.3334 5.72194 10.1211C5.72194 7.90886 7.52189 6.10891 9.7341 6.10891C11.9465 6.10891 13.7463 7.90886 13.7463 10.1211C13.7463 12.3334 11.9465 14.1332 9.7341 14.1332Z" fill="#7D89A6"/>
<path d="M14.9632 3.19995C14.131 3.19995 13.4541 3.87698 13.4541 4.70905C13.4541 5.54127 14.131 6.2183 14.9632 6.2183C15.7954 6.2183 16.4724 5.54127 16.4724 4.70905C16.4724 3.87684 15.7954 3.19995 14.9632 3.19995ZM14.9632 5.12317C14.7349 5.12317 14.5491 4.93734 14.5491 4.70905C14.5491 4.48062 14.7349 4.29494 14.9632 4.29494C15.1916 4.29494 15.3775 4.48062 15.3775 4.70905C15.3775 4.93734 15.1916 5.12317 14.9632 5.12317Z" fill="#7D89A6"/>
</svg>
