<svg width="20" height="20" viewBox="0 0 20 20" fill="none" xmlns="http://www.w3.org/2000/svg">
<path fill-rule="evenodd" clip-rule="evenodd" d="M2.38927 0.162354H17.9698C18.9502 0.162354 19.7449 0.957055 19.7449 1.93737V17.5179C19.7449 18.4982 18.9502 19.2929 17.9698 19.2929H2.38927C1.40896 19.2929 0.614258 18.4982 0.614258 17.5179V1.93737C0.614258 0.957055 1.40896 0.162354 2.38927 0.162354ZM7.23113 6.28553C7.41029 6.0174 7.50592 5.70217 7.50592 5.3797C7.50592 4.94728 7.33414 4.53257 7.02837 4.2268C6.7226 3.92103 6.30789 3.74925 5.87547 3.74925C5.55299 3.74925 5.23776 3.84487 4.96964 4.02403C4.70151 4.20319 4.49253 4.45783 4.36913 4.75575C4.24572 5.05368 4.21344 5.38151 4.27635 5.69778C4.33926 6.01406 4.49454 6.30458 4.72257 6.5326C4.95059 6.76062 5.24111 6.91591 5.55738 6.97882C5.87366 7.04173 6.20149 7.00944 6.49941 6.88604C6.79734 6.76263 7.05198 6.55365 7.23113 6.28553ZM7.13646 8.09722V15.3005C7.13675 15.3537 7.12653 15.4064 7.10639 15.4555C7.08625 15.5047 7.05659 15.5494 7.01912 15.5871C6.98164 15.6248 6.93709 15.6547 6.88802 15.6751C6.83895 15.6955 6.78634 15.706 6.7332 15.706H5.0147C4.96156 15.7061 4.90892 15.6958 4.8598 15.6755C4.81067 15.6552 4.76604 15.6254 4.72847 15.5879C4.69089 15.5503 4.66111 15.5057 4.64084 15.4565C4.62057 15.4074 4.61021 15.3548 4.61035 15.3016V8.09722C4.61035 7.98998 4.65295 7.88713 4.72879 7.8113C4.80462 7.73547 4.90746 7.69287 5.0147 7.69287H6.7332C6.84025 7.69316 6.94282 7.73589 7.01841 7.81169C7.09401 7.88749 7.13646 7.99017 7.13646 8.09722ZM16.119 15.3342V11.8472L16.119 11.8207C16.1191 10.3001 16.1193 7.57324 13.1821 7.57324C11.8484 7.57324 11.2234 8.06129 10.8016 8.6939V8.06564C10.8016 7.96705 10.7624 7.87249 10.6927 7.80278C10.623 7.73306 10.5285 7.6939 10.4299 7.6939H8.64507C8.5963 7.6939 8.54802 7.70352 8.50298 7.72221C8.45793 7.74091 8.41703 7.76831 8.38259 7.80284C8.34816 7.83738 8.32088 7.87836 8.30232 7.92346C8.28375 7.96856 8.27427 8.01687 8.27442 8.06564V15.3342C8.27427 15.3829 8.28375 15.4313 8.30232 15.4764C8.32088 15.5215 8.34816 15.5624 8.38259 15.597C8.41703 15.6315 8.45793 15.6589 8.50298 15.6776C8.54802 15.6963 8.5963 15.7059 8.64507 15.7059H10.4299C10.5275 15.7045 10.6207 15.6647 10.6892 15.5951C10.7578 15.5256 10.7962 15.4318 10.7962 15.3342V11.4363C10.8418 10.9124 11.0734 9.74609 12.2092 9.74609C13.5676 9.74609 13.5407 11.2087 13.5294 11.8251C13.5285 11.874 13.5277 11.9177 13.5277 11.9548V15.3342C13.5276 15.383 13.5371 15.4314 13.5557 15.4766C13.5744 15.5218 13.6017 15.5628 13.6363 15.5974C13.6708 15.6319 13.7119 15.6593 13.757 15.6779C13.8022 15.6965 13.8506 15.7061 13.8995 15.7059H15.7473C15.7962 15.7061 15.8446 15.6965 15.8897 15.6779C15.9349 15.6593 15.9759 15.6319 16.0105 15.5974C16.045 15.5628 16.0724 15.5218 16.091 15.4766C16.1097 15.4314 16.1192 15.383 16.119 15.3342Z" fill="#7D89A6"/>
</svg>
