<svg width="171" height="24" viewBox="0 0 171 24" fill="none" xmlns="http://www.w3.org/2000/svg">
<path d="M15.9504 2.76807H0.723251C0.38961 2.76807 0.119141 3.0383 0.119141 3.37163V19.9695C0.119141 20.3028 0.38961 20.5731 0.723251 20.5731H15.9504C16.284 20.5731 16.5545 20.3028 16.5545 19.9695V3.37163C16.5545 3.0383 16.284 2.76807 15.9504 2.76807Z" fill="#00C0A9"/>
<path d="M3.38867 12.9931L13.2854 7.88065V9.35404L4.95225 13.5612V13.5967L13.2854 17.7861V19.2595L3.38867 14.1648V13.0109V12.9931Z" fill="white"/>
<path d="M3.38867 9.26512V10.6498L13.2854 5.53726V4.06387L3.38867 9.26512Z" fill="white"/>
<path d="M27.1396 6.65103V10.2344H31.5858V12.0129H27.1396V17.0489H24.7273V4.87256H32.4398L32.1845 6.65103H27.1396ZM36.5974 13.0958C36.6444 13.6769 36.7764 14.1494 36.9936 14.5133C37.2166 14.8772 37.5013 15.1443 37.8476 15.3145C38.1939 15.4847 38.5784 15.5698 39.001 15.5698C39.4471 15.5698 39.8667 15.4994 40.26 15.3585C40.6533 15.2176 41.0407 15.021 41.4222 14.7686L42.3907 16.0981C41.9563 16.462 41.4369 16.7555 40.8323 16.9785C40.2336 17.2016 39.5733 17.3131 38.8513 17.3131C37.8418 17.3131 36.9907 17.1047 36.2981 16.688C35.6113 16.2712 35.0919 15.6931 34.7397 14.9535C34.3875 14.2139 34.2114 13.3629 34.2114 12.4003C34.2114 11.4729 34.3846 10.6365 34.7309 9.89103C35.0772 9.14559 35.5761 8.5557 36.2276 8.12136C36.8791 7.68114 37.6657 7.46103 38.5872 7.46103C39.4441 7.46103 40.1837 7.64886 40.8059 8.02451C41.428 8.40016 41.9094 8.94016 42.2498 9.6445C42.5902 10.343 42.7604 11.1853 42.7604 12.1713C42.7604 12.3298 42.7546 12.4912 42.7428 12.6556C42.737 12.8199 42.7282 12.9667 42.7164 13.0958H36.5974ZM38.596 9.09864C38.0325 9.09864 37.5688 9.30114 37.2049 9.70613C36.8469 10.1053 36.6356 10.7392 36.571 11.6079H40.4977C40.486 10.8213 40.3216 10.208 40.0047 9.76776C39.6936 9.32168 39.224 9.09864 38.596 9.09864ZM45.2628 17.0489V15.4378H46.5746V9.32755H45.2628V7.72516H48.3443L48.7757 9.86461C49.1161 9.07222 49.5446 8.47646 50.0611 8.07733C50.5777 7.67233 51.2263 7.46984 52.0069 7.46984C52.3063 7.46984 52.5704 7.49331 52.7993 7.54027C53.0341 7.58723 53.2571 7.64886 53.4684 7.72516L52.7729 9.67972C52.5909 9.63277 52.4178 9.59755 52.2534 9.57407C52.0891 9.54472 51.9042 9.53005 51.6988 9.53005C51.0531 9.53005 50.4896 9.78244 50.0083 10.2872C49.5329 10.7861 49.1631 11.4641 48.899 12.321V15.4378H50.7567V17.0489H45.2628ZM51.5051 11.3613V8.88733L51.822 7.72516H53.4684L53.0546 11.3613H51.5051ZM61.1389 3.75441L63.4633 4.00093V17.0489H61.403L61.2622 15.9484C60.9746 16.3593 60.6136 16.6909 60.1792 16.9433C59.7449 17.1898 59.2401 17.3131 58.6649 17.3131C57.8784 17.3131 57.2269 17.1076 56.7103 16.6968C56.1997 16.2859 55.8182 15.7107 55.5658 14.9711C55.3193 14.2257 55.196 13.3599 55.196 12.3738C55.196 11.423 55.3427 10.5778 55.6362 9.8382C55.9297 9.09864 56.3523 8.51755 56.904 8.09494C57.4616 7.67233 58.122 7.46103 58.885 7.46103C59.3428 7.46103 59.7596 7.54027 60.1352 7.69875C60.5109 7.85723 60.8454 8.09201 61.1389 8.40309V3.75441ZM59.5101 9.19548C58.9232 9.19548 58.4595 9.45081 58.119 9.96146C57.7845 10.4662 57.6172 11.2733 57.6172 12.3826C57.6172 13.1633 57.6876 13.7884 57.8285 14.258C57.9694 14.7217 58.1689 15.0562 58.4272 15.2617C58.6854 15.4671 58.9907 15.5698 59.3428 15.5698C59.7302 15.5698 60.0707 15.4554 60.3641 15.2264C60.6635 14.9917 60.9217 14.7011 61.1389 14.3548V10.1111C60.9217 9.82353 60.6782 9.60048 60.4082 9.442C60.144 9.27766 59.8447 9.19548 59.5101 9.19548ZM70.1653 7.46103C71.0927 7.46103 71.8792 7.66353 72.5248 8.06853C73.1705 8.47353 73.6606 9.04581 73.9952 9.78537C74.3356 10.5191 74.5058 11.379 74.5058 12.365C74.5058 13.3746 74.3356 14.2492 73.9952 14.9887C73.6547 15.7283 73.1617 16.3006 72.516 16.7056C71.8704 17.1106 71.0839 17.3131 70.1565 17.3131C69.235 17.3131 68.4484 17.1164 67.7969 16.7232C67.1513 16.3241 66.6582 15.7576 66.3178 15.0239C65.9774 14.2844 65.8071 13.404 65.8071 12.3826C65.8071 11.4083 65.9774 10.5513 66.3178 9.81179C66.6582 9.07222 67.1542 8.49701 67.8057 8.08614C68.4572 7.6694 69.2438 7.46103 70.1653 7.46103ZM70.1653 9.21309C69.5138 9.21309 69.0266 9.46842 68.7038 9.97907C68.3868 10.4897 68.2283 11.2909 68.2283 12.3826C68.2283 13.4861 68.3868 14.2932 68.7038 14.8038C69.0207 15.3086 69.505 15.561 70.1565 15.561C70.808 15.561 71.2922 15.3086 71.6092 14.8038C71.9261 14.2932 72.0846 13.4803 72.0846 12.365C72.0846 11.2792 71.9261 10.4838 71.6092 9.97907C71.2922 9.46842 70.8109 9.21309 70.1653 9.21309ZM79.174 7.72516V14.1875C79.174 14.6923 79.2738 15.0474 79.4734 15.2529C79.6729 15.4583 79.9635 15.561 80.345 15.561C80.7089 15.561 81.064 15.4524 81.4103 15.2353C81.7566 15.0122 82.0384 14.7305 82.2555 14.39V7.72516H84.5799V17.0489H82.5549L82.4316 15.9044C82.0971 16.3622 81.6686 16.7114 81.1462 16.9521C80.6238 17.1927 80.0838 17.3131 79.5262 17.3131C78.6282 17.3131 77.9561 17.0607 77.51 16.5559C77.0698 16.0452 76.8497 15.3497 76.8497 14.4693V7.72516H79.174ZM90.9561 15.5962C91.502 15.5962 91.9393 15.5023 92.268 15.3145C92.6026 15.1208 92.7698 14.8508 92.7698 14.5045C92.7698 14.2756 92.7141 14.0819 92.6026 13.9234C92.4969 13.7649 92.2856 13.6182 91.9686 13.4832C91.6517 13.3423 91.1762 13.1868 90.5423 13.0166C89.9436 12.864 89.4183 12.6761 88.9664 12.4531C88.5203 12.2242 88.171 11.9307 87.9186 11.5727C87.6721 11.2146 87.5489 10.7627 87.5489 10.2168C87.5489 9.67092 87.7015 9.19255 88.0067 8.78168C88.3119 8.36494 88.7521 8.04212 89.3273 7.8132C89.9084 7.57842 90.6069 7.46103 91.4228 7.46103C92.221 7.46103 92.9195 7.56668 93.5182 7.77799C94.1169 7.98342 94.6305 8.24168 95.059 8.55277L94.1081 9.97026C93.7324 9.72961 93.3245 9.53592 92.8843 9.38918C92.4499 9.23657 91.9804 9.16027 91.4756 9.16027C90.9297 9.16027 90.5306 9.23951 90.2782 9.39798C90.0317 9.55646 89.9084 9.77657 89.9084 10.0583C89.9084 10.2579 89.9701 10.4281 90.0933 10.569C90.2224 10.704 90.4514 10.836 90.7801 10.9652C91.1146 11.0884 91.5901 11.2381 92.2064 11.4142C92.8109 11.5785 93.3362 11.7722 93.7823 11.9953C94.2343 12.2183 94.5835 12.5147 94.83 12.8845C95.0766 13.2543 95.1998 13.7385 95.1998 14.3372C95.1998 15.0122 95.0032 15.5698 94.6099 16.01C94.2167 16.4502 93.6972 16.7789 93.0516 16.9961C92.4118 17.2074 91.7162 17.3131 90.9649 17.3131C90.0845 17.3131 89.3156 17.1869 88.6582 16.9345C88.0008 16.6821 87.4432 16.3563 86.9854 15.9572L88.1916 14.6013C88.5555 14.8889 88.9693 15.1267 89.433 15.3145C89.9026 15.5023 90.4103 15.5962 90.9561 15.5962Z" fill="#00C0A9"/>
<path d="M116.449 4.92538L117.135 17.0489H115.665L115.286 10.7186C115.269 10.2902 115.251 9.85581 115.234 9.41559C115.216 8.97538 115.204 8.55277 115.198 8.14777C115.192 7.74277 115.189 7.38179 115.189 7.06484C115.189 6.74788 115.189 6.50136 115.189 6.32527L113.147 14.8743H111.615L109.423 6.32527C109.429 6.49549 109.434 6.74788 109.44 7.08244C109.446 7.41114 109.449 7.78386 109.449 8.20059C109.455 8.61733 109.452 9.04581 109.44 9.48603C109.434 9.92037 109.423 10.3254 109.405 10.701L109.079 17.0489H107.644L108.331 4.92538H110.462L112.425 13.2279L114.3 4.92538H116.449ZM124.128 7.77799V15.878H126.743V17.0489H119.787V15.878H122.649V8.94896H119.875V7.77799H124.128ZM122.948 3.43745C123.277 3.43745 123.538 3.53724 123.732 3.7368C123.931 3.93637 124.031 4.17995 124.031 4.46756C124.031 4.76691 123.931 5.0193 123.732 5.22473C123.538 5.4243 123.277 5.52408 122.948 5.52408C122.637 5.52408 122.382 5.4243 122.182 5.22473C121.982 5.0193 121.883 4.76691 121.883 4.46756C121.883 4.17995 121.982 3.93637 122.182 3.7368C122.382 3.53724 122.637 3.43745 122.948 3.43745ZM137.759 7.77799L133.586 11.9512L138.243 17.0489H136.297L131.737 11.9865L135.839 7.77799H137.759ZM131.569 3.86006V17.0489H130.09V4.04495L131.569 3.86006ZM146.098 3.86006L147.578 4.04495V17.0489H146.283L146.142 15.8251C145.796 16.3182 145.397 16.6792 144.945 16.9081C144.499 17.137 144.021 17.2514 143.51 17.2514C142.706 17.2514 142.043 17.0489 141.52 16.6439C140.998 16.2389 140.61 15.6755 140.358 14.9535C140.106 14.2257 139.979 13.3834 139.979 12.4267C139.979 11.4993 140.123 10.6717 140.411 9.94385C140.698 9.21016 141.112 8.63494 141.652 8.2182C142.198 7.7956 142.853 7.58429 143.616 7.58429C144.15 7.58429 144.619 7.6782 145.024 7.86603C145.429 8.04799 145.787 8.31799 146.098 8.67603V3.86006ZM144.003 8.77288C143.228 8.77288 142.632 9.07516 142.216 9.67972C141.799 10.2843 141.591 11.1999 141.591 12.4267C141.591 13.2249 141.676 13.8941 141.846 14.4341C142.016 14.9741 142.266 15.3791 142.594 15.6491C142.929 15.9191 143.337 16.0541 143.818 16.0541C144.346 16.0541 144.795 15.9044 145.165 15.605C145.541 15.3057 145.852 14.9682 146.098 14.5925V9.96146C145.846 9.58581 145.541 9.29527 145.183 9.08983C144.825 8.87853 144.432 8.77288 144.003 8.77288ZM157.749 15.0239C157.749 15.3937 157.81 15.6637 157.933 15.8339C158.057 16.0042 158.247 16.1304 158.506 16.2125L158.145 17.2514C157.746 17.1986 157.396 17.0724 157.097 16.8729C156.798 16.6674 156.58 16.3593 156.445 15.9484C156.111 16.3769 155.694 16.7026 155.195 16.9257C154.696 17.1429 154.145 17.2514 153.54 17.2514C152.613 17.2514 151.882 16.9902 151.348 16.4679C150.814 15.9455 150.547 15.2529 150.547 14.39C150.547 13.4333 150.919 12.6996 151.665 12.189C152.41 11.6783 153.487 11.423 154.896 11.423H156.261V10.6482C156.261 9.97907 156.064 9.50657 155.671 9.2307C155.283 8.94896 154.743 8.80809 154.051 8.80809C153.745 8.80809 153.387 8.84625 152.977 8.92255C152.566 8.99298 152.12 9.11331 151.638 9.28353L151.251 8.16538C151.82 7.95407 152.354 7.8044 152.853 7.71636C153.352 7.62831 153.828 7.58429 154.28 7.58429C155.436 7.58429 156.302 7.85429 156.877 8.39429C157.458 8.92842 157.749 9.65624 157.749 10.5778V15.0239ZM153.919 16.1245C154.376 16.1245 154.814 16.01 155.23 15.7811C155.647 15.5463 155.991 15.2235 156.261 14.8126V12.4267H154.922C153.901 12.4267 153.179 12.6028 152.756 12.9549C152.34 13.3071 152.131 13.7796 152.131 14.3724C152.131 14.9476 152.278 15.3849 152.572 15.6843C152.871 15.9777 153.32 16.1245 153.919 16.1245ZM167.215 3.86006L168.694 4.04495V17.0489H167.4L167.259 15.8251C166.913 16.3182 166.514 16.6792 166.062 16.9081C165.616 17.137 165.137 17.2514 164.627 17.2514C163.822 17.2514 163.159 17.0489 162.637 16.6439C162.114 16.2389 161.727 15.6755 161.475 14.9535C161.222 14.2257 161.096 13.3834 161.096 12.4267C161.096 11.4993 161.24 10.6717 161.527 9.94385C161.815 9.21016 162.229 8.63494 162.769 8.2182C163.315 7.7956 163.969 7.58429 164.732 7.58429C165.266 7.58429 165.736 7.6782 166.141 7.86603C166.546 8.04799 166.904 8.31799 167.215 8.67603V3.86006ZM165.12 8.77288C164.345 8.77288 163.749 9.07516 163.332 9.67972C162.916 10.2843 162.707 11.1999 162.707 12.4267C162.707 13.2249 162.792 13.8941 162.963 14.4341C163.133 14.9741 163.382 15.3791 163.711 15.6491C164.046 15.9191 164.453 16.0541 164.935 16.0541C165.463 16.0541 165.912 15.9044 166.282 15.605C166.657 15.3057 166.969 14.9682 167.215 14.5925V9.96146C166.963 9.58581 166.657 9.29527 166.299 9.08983C165.941 8.87853 165.548 8.77288 165.12 8.77288Z" fill="#E6EBF8"/>
</svg>
