<svg width="56" height="56" viewBox="0 0 56 56" fill="none" xmlns="http://www.w3.org/2000/svg">
<path d="M28.0025 55.0325C43.1351 55.0325 55.4025 42.7651 55.4025 27.6325C55.4025 12.4999 43.1351 0.232544 28.0025 0.232544C12.8699 0.232544 0.602539 12.4999 0.602539 27.6325C0.602539 42.7651 12.8699 55.0325 28.0025 55.0325Z" fill="#13AA52"/>
<path d="M35.3268 24.2846C33.5961 16.6463 29.5059 14.1348 29.0655 13.1753C28.5838 12.4983 28.0958 11.2942 28.0958 11.2942C28.0878 11.2739 28.0749 11.238 28.0599 11.2032C28.0102 11.8802 27.9845 12.1414 27.3444 12.8242C26.3533 13.5991 21.2683 17.8659 20.8546 26.544C20.4687 34.6377 26.7012 39.4606 27.544 40.0755L27.6398 40.1434V40.1375C27.6452 40.1782 27.9074 42.0641 28.0915 44.0624H28.7519C28.9068 42.6499 29.1391 41.2469 29.4476 39.8598L29.5011 39.825C29.8781 39.5547 30.2376 39.2606 30.5773 38.9447L30.6158 38.9099C32.4075 37.2547 35.6286 33.4261 35.5971 27.3222C35.5904 26.3039 35.5 25.288 35.3268 24.2846ZM28.0214 35.5058C28.0214 35.5058 28.0214 24.154 28.396 24.1562C28.6882 24.1562 29.0666 38.7986 29.0666 38.7986C28.5464 38.736 28.0214 36.3888 28.0214 35.5058Z" fill="white"/>
</svg>
