<svg width="55" height="56" viewBox="0 0 55 56" fill="none" xmlns="http://www.w3.org/2000/svg">
<path fill-rule="evenodd" clip-rule="evenodd" d="M27.498 0.233765C42.5724 0.233765 54.8975 12.5587 54.8975 27.6332C54.8975 42.7075 42.5725 55.0326 27.498 55.0326C12.4237 55.0326 0.0986328 42.7075 0.0986328 27.6332C0.0986328 12.5588 12.4237 0.233765 27.498 0.233765Z" fill="#57A05A"/>
<path d="M27.498 43.3797C27.3826 43.3797 27.2692 43.3492 27.1694 43.2913L23.2109 41C23.0604 40.9129 22.9506 40.7694 22.9058 40.6013C22.861 40.4332 22.8848 40.2542 22.972 40.1036C23.0592 39.9531 23.2026 39.8433 23.3707 39.7985C23.5388 39.7537 23.7178 39.7775 23.8684 39.8647L27.498 41.965L39.3079 35.1284V20.138L27.498 13.3014L15.6882 20.138V35.1284L16.7512 35.7435C17.7878 36.4591 19.0213 36.8348 20.2809 36.8187C20.9261 36.8187 21.5931 36.8187 21.5931 34.1942V21.7283C21.5931 21.5543 21.6622 21.3874 21.7853 21.2643C21.9083 21.1413 22.0752 21.0722 22.2492 21.0722C22.4232 21.0722 22.5901 21.1413 22.7132 21.2643C22.8362 21.3874 22.9053 21.5543 22.9053 21.7283V34.1942C22.9053 36.2394 22.5875 38.1309 20.2809 38.1309C18.7868 38.1417 17.324 37.7033 16.0822 36.8725L14.7034 36.0741C14.6038 36.0166 14.5211 35.9338 14.4636 35.8342C14.4061 35.7345 14.3759 35.6215 14.376 35.5065V19.76C14.3759 19.6449 14.4061 19.5319 14.4636 19.4322C14.521 19.3326 14.6038 19.2498 14.7034 19.1923L27.1694 11.9751C27.2692 11.9172 27.3826 11.8867 27.4981 11.8867C27.6135 11.8867 27.7269 11.9172 27.8268 11.9751L40.2927 19.1923C40.3924 19.2498 40.4751 19.3326 40.5325 19.4322C40.59 19.5319 40.6202 19.6449 40.6201 19.76V35.5065C40.6202 35.6215 40.59 35.7345 40.5325 35.8342C40.475 35.9338 40.3923 36.0166 40.2927 36.0741L27.8267 43.2913C27.7269 43.3492 27.6135 43.3797 27.498 43.3797Z" fill="#FFFFFE"/>
<path d="M30.1229 34.1942C27.2287 34.1942 24.874 32.4284 24.874 30.2576C24.874 30.0836 24.9431 29.9167 25.0662 29.7937C25.1892 29.6706 25.3561 29.6015 25.5301 29.6015C25.7041 29.6015 25.871 29.6706 25.9941 29.7937C26.1171 29.9167 26.1862 30.0836 26.1862 30.2576C26.1862 31.68 27.9892 32.882 30.1229 32.882C32.2565 32.882 34.0595 31.68 34.0595 30.2576C34.0595 29.3259 32.4429 28.2893 30.1229 28.2893C27.1794 28.2893 24.874 26.8489 24.874 25.0088C24.874 22.838 27.2287 21.0721 30.1229 21.0721C33.017 21.0721 35.3717 22.838 35.3717 25.0088C35.3717 25.1828 35.3026 25.3497 35.1795 25.4727C35.0565 25.5957 34.8896 25.6649 34.7156 25.6649C34.5416 25.6649 34.3747 25.5957 34.2516 25.4727C34.1286 25.3497 34.0595 25.1828 34.0595 25.0088C34.0595 23.5863 32.2565 22.3844 30.1229 22.3844C27.9892 22.3844 26.1862 23.5863 26.1862 25.0088C26.1862 25.9404 27.8028 26.9771 30.1229 26.9771C33.0663 26.9771 35.3717 28.4174 35.3717 30.2576C35.3717 32.4284 33.017 34.1942 30.1229 34.1942Z" fill="#FFFFFE"/>
<path d="M27.498 43.3797C27.3826 43.3797 27.2692 43.3492 27.1694 43.2913L23.2109 41C23.0604 40.9129 22.9506 40.7694 22.9058 40.6013C22.861 40.4332 22.8848 40.2542 22.972 40.1036C23.0592 39.9531 23.2026 39.8433 23.3707 39.7985C23.5388 39.7537 23.7178 39.7775 23.8684 39.8647L27.498 41.965L39.3079 35.1284V20.138L27.498 13.3014L15.6882 20.138V35.1284L16.7512 35.7435C17.7878 36.4591 19.0213 36.8348 20.2809 36.8187C20.9261 36.8187 21.5931 36.8187 21.5931 34.1942V21.7283C21.5931 21.5543 21.6622 21.3874 21.7853 21.2643C21.9083 21.1413 22.0752 21.0722 22.2492 21.0722C22.4232 21.0722 22.5901 21.1413 22.7132 21.2643C22.8362 21.3874 22.9053 21.5543 22.9053 21.7283V34.1942C22.9053 36.2394 22.5875 38.1309 20.2809 38.1309C18.7868 38.1417 17.324 37.7033 16.0822 36.8725L14.7034 36.0741C14.6038 36.0166 14.5211 35.9338 14.4636 35.8342C14.4061 35.7345 14.3759 35.6215 14.376 35.5065V19.76C14.3759 19.6449 14.4061 19.5319 14.4636 19.4322C14.521 19.3326 14.6038 19.2498 14.7034 19.1923L27.1694 11.9751C27.2692 11.9172 27.3826 11.8867 27.4981 11.8867C27.6135 11.8867 27.7269 11.9172 27.8268 11.9751L40.2927 19.1923C40.3924 19.2498 40.4751 19.3326 40.5325 19.4322C40.59 19.5319 40.6202 19.6449 40.6201 19.76V35.5065C40.6202 35.6215 40.59 35.7345 40.5325 35.8342C40.475 35.9338 40.3923 36.0166 40.2927 36.0741L27.8267 43.2913C27.7269 43.3492 27.6135 43.3797 27.498 43.3797Z" fill="#FFFFFE"/>
<path d="M30.1229 34.1942C27.2287 34.1942 24.874 32.4284 24.874 30.2576C24.874 30.0836 24.9431 29.9167 25.0662 29.7937C25.1892 29.6706 25.3561 29.6015 25.5301 29.6015C25.7041 29.6015 25.871 29.6706 25.9941 29.7937C26.1171 29.9167 26.1862 30.0836 26.1862 30.2576C26.1862 31.68 27.9892 32.882 30.1229 32.882C32.2565 32.882 34.0595 31.68 34.0595 30.2576C34.0595 29.3259 32.4429 28.2893 30.1229 28.2893C27.1794 28.2893 24.874 26.8489 24.874 25.0088C24.874 22.838 27.2287 21.0721 30.1229 21.0721C33.017 21.0721 35.3717 22.838 35.3717 25.0088C35.3717 25.1828 35.3026 25.3497 35.1795 25.4727C35.0565 25.5957 34.8896 25.6649 34.7156 25.6649C34.5416 25.6649 34.3747 25.5957 34.2516 25.4727C34.1286 25.3497 34.0595 25.1828 34.0595 25.0088C34.0595 23.5863 32.2565 22.3844 30.1229 22.3844C27.9892 22.3844 26.1862 23.5863 26.1862 25.0088C26.1862 25.9404 27.8028 26.9771 30.1229 26.9771C33.0663 26.9771 35.3717 28.4174 35.3717 30.2576C35.3717 32.4284 33.017 34.1942 30.1229 34.1942Z" fill="#FFFFFE"/>
</svg>
