<svg width="56" height="56" viewBox="0 0 56 56" fill="none" xmlns="http://www.w3.org/2000/svg">
<path fill-rule="evenodd" clip-rule="evenodd" d="M27.9941 0.233765C43.0685 0.233765 55.3936 12.5587 55.3936 27.6332C55.3936 42.7075 43.0686 55.0326 27.9941 55.0326C12.9198 55.0326 0.594727 42.7075 0.594727 27.6332C0.594727 12.5588 12.9198 0.233765 27.9941 0.233765Z" fill="#1E88E5"/>
<path fill-rule="evenodd" clip-rule="evenodd" d="M30.2274 27.633C30.2274 26.4026 29.2239 25.3992 27.9935 25.3992C26.7632 25.3992 25.7598 26.4027 25.7598 27.633C25.7598 28.8633 26.7633 29.8668 27.9935 29.8668C29.2239 29.8668 30.2274 28.8633 30.2274 27.633Z" fill="#FFFFFE"/>
<path fill-rule="evenodd" clip-rule="evenodd" d="M40.6705 31.9351C40.8009 31.7729 40.879 31.567 40.879 31.3428C40.879 30.8202 40.4552 30.3965 39.9327 30.3965C39.8528 30.3965 39.7753 30.4065 39.7011 30.4252C39.4838 30.1383 39.2447 29.8455 38.9838 29.547C38.4295 28.9128 37.7935 28.2718 37.0884 27.6335C37.7935 26.9952 38.4296 26.354 38.9838 25.72C39.9451 24.6205 40.6124 23.5965 40.9675 22.6764C41.3575 21.6662 41.3585 20.8133 40.9707 20.1415C40.5828 19.4696 39.8436 19.0441 38.7738 18.8767C37.7995 18.7242 36.5788 18.7902 35.146 19.073C34.3197 19.236 33.4465 19.4663 32.5412 19.7577C32.3466 18.8539 32.1169 18.0053 31.8545 17.2265C32.066 17.0529 32.201 16.7894 32.201 16.4946C32.201 15.9719 31.7773 15.5482 31.2547 15.5482C31.2309 15.5482 31.2075 15.5494 31.1842 15.5511C30.8757 14.9054 30.5427 14.3596 30.1879 13.9198C29.5081 13.077 28.7699 12.6497 27.9942 12.6497C27.2184 12.6497 26.4803 13.077 25.8004 13.9198C25.1812 14.6874 24.6281 15.7775 24.1564 17.1596C23.8844 17.9567 23.6472 18.8281 23.447 19.7578C22.5417 19.4664 21.6684 19.2361 20.8422 19.0731C19.4093 18.7904 18.1889 18.7243 17.2145 18.8768C16.1446 19.0443 15.4056 19.4697 15.0177 20.1416C14.6298 20.8134 14.6308 21.6663 15.0207 22.6765C15.1189 22.931 15.2412 23.1935 15.3867 23.4633C15.2536 23.6263 15.1737 23.8344 15.1737 24.0614C15.1737 24.5841 15.5974 25.0077 16.1201 25.0077C16.2122 25.0077 16.301 24.9943 16.3852 24.9698C16.5759 25.2156 16.7822 25.4659 17.0045 25.7201C17.5588 26.3543 18.195 26.9953 18.8999 27.6336C18.1949 28.2719 17.5588 28.913 17.0045 29.5471C16.0434 30.6466 15.3759 31.6706 15.0208 32.5907C14.6309 33.6009 14.6298 34.4538 15.0178 35.1256C15.4057 35.7975 16.1448 36.223 17.2146 36.3905C17.5552 36.4438 17.9256 36.4703 18.3249 36.4703C19.068 36.4703 19.9103 36.3781 20.8423 36.1942C21.6685 36.0312 22.5418 35.8009 23.4471 35.5095C23.6421 36.4148 23.8722 37.2646 24.1352 38.0445C23.934 38.2181 23.8063 38.4747 23.8063 38.7614C23.8063 39.284 24.23 39.7077 24.7528 39.7077C24.7685 39.7077 24.7841 39.7072 24.7996 39.7066C25.1094 40.3566 25.444 40.9056 25.8005 41.3476C26.4804 42.1903 27.2185 42.6177 27.9943 42.6177C28.77 42.6177 29.5082 42.1903 30.188 41.3476C30.8073 40.58 31.3603 39.49 31.8319 38.1077C32.104 37.3106 32.3411 36.4392 32.5413 35.5095C33.4466 35.8009 34.3199 36.0312 35.1462 36.1942C36.0783 36.3782 36.9205 36.4703 37.6637 36.4703C38.0628 36.4703 38.4335 36.4436 38.774 36.3905C39.8438 36.223 40.5829 35.7975 40.9708 35.1256C41.3586 34.4538 41.3576 33.6009 40.9678 32.5907C40.8853 32.3776 40.786 32.1588 40.6705 31.9351ZM35.268 19.6918C36.1627 19.5153 36.9678 19.4284 37.6654 19.4284C39.065 19.4284 40.0324 19.7783 40.4241 20.457C41.0112 21.4737 40.3131 23.2407 38.5087 25.3048C37.9563 25.9366 37.3201 26.576 36.6131 27.213C35.595 26.3311 34.4496 25.4587 33.2103 24.622C33.1054 23.1302 32.9226 21.7021 32.6679 20.3795C33.5728 20.0855 34.4448 19.8542 35.268 19.6918ZM30.3389 31.6949C29.5575 32.146 28.7733 32.5667 27.9941 32.9538C27.2149 32.5667 26.4307 32.1461 25.6492 31.6949C24.8678 31.2437 24.1114 30.7749 23.3866 30.2936C23.3322 29.4252 23.3044 28.5358 23.3044 27.6334C23.3044 26.7311 23.3322 25.8415 23.3866 24.9732C24.1114 24.4919 24.8678 24.023 25.6492 23.5719C26.4307 23.1208 27.2149 22.7 27.9941 22.3129C28.7733 22.7 29.5575 23.1207 30.3389 23.5719C31.1203 24.023 31.8768 24.4919 32.6015 24.9732C32.656 25.8414 32.6837 26.731 32.6837 27.6334C32.6837 28.5358 32.656 29.4252 32.6015 30.2936C31.8768 30.7749 31.1202 31.2437 30.3389 31.6949ZM32.544 31.0855C32.44 32.3459 32.279 33.5544 32.0647 34.6842C30.9792 34.3048 29.852 33.8401 28.7085 33.3C29.3565 32.9687 30.0064 32.6152 30.6543 32.2413C31.3021 31.8673 31.9332 31.4811 32.544 31.0855ZM27.2794 33.3C26.1359 33.8401 25.0088 34.3048 23.9232 34.6842C23.7089 33.5544 23.5479 32.3459 23.4439 31.0855C24.0547 31.481 24.6859 31.8673 25.3336 32.2412C25.9815 32.6152 26.6316 32.9688 27.2794 33.3ZM22.7294 29.8479C21.6899 29.1277 20.7238 28.3839 19.8525 27.6334C20.7238 26.8829 21.6899 26.1392 22.7294 25.4189C22.6922 26.1456 22.6734 26.8853 22.6734 27.6334C22.6734 28.3815 22.6923 29.1212 22.7294 29.8479ZM23.4439 24.1814C23.5479 22.9211 23.7089 21.7124 23.9232 20.5826C25.0087 20.962 26.1359 21.4268 27.2794 21.9669C26.6314 22.2982 25.9815 22.6516 25.3336 23.0256C24.6859 23.3996 24.0547 23.7859 23.4439 24.1814ZM28.7085 21.967C29.852 21.4269 30.9792 20.9621 32.0647 20.5827C32.279 21.7126 32.44 22.9211 32.544 24.1815C31.9332 23.786 31.302 23.3997 30.6543 23.0258C30.0064 22.6516 29.3565 22.2982 28.7085 21.967ZM33.2587 25.419C34.2981 26.1392 35.2642 26.883 36.1355 27.6335C35.2642 28.3839 34.2981 29.1277 33.2587 29.848C33.2957 29.1212 33.3146 28.3816 33.3146 27.6335C33.3146 26.8854 33.2957 26.1458 33.2587 25.419ZM24.7533 17.3631C25.6386 14.7684 26.8198 13.2803 27.9939 13.2803C28.9079 13.2803 29.8262 14.1822 30.6058 15.8057C30.4226 15.9783 30.3081 16.2229 30.3081 16.4945C30.3081 17.0171 30.7318 17.4408 31.2544 17.4408C31.2565 17.4408 31.2587 17.4407 31.2607 17.4407C31.5207 18.2139 31.7475 19.0582 31.9392 19.9588C30.6664 20.3996 29.3383 20.9554 27.9939 21.6104C26.6496 20.9554 25.3215 20.3997 24.0487 19.9588C24.2467 19.028 24.4824 18.1573 24.7533 17.3631ZM17.4792 25.3047C17.2703 25.0657 17.0764 24.8308 16.8974 24.6004C17.0036 24.4474 17.0662 24.2616 17.0662 24.0612C17.0662 23.5385 16.6425 23.1147 16.1199 23.1147C16.0538 23.1147 15.9892 23.1216 15.927 23.1345C15.3323 22.0224 15.1966 21.0928 15.5639 20.4568C15.9556 19.7781 16.9228 19.4282 18.3227 19.4282C19.0201 19.4282 19.8254 19.5151 20.72 19.6916C21.5433 19.854 22.4152 20.0854 23.3202 20.3792C23.0655 21.7017 22.8828 23.1299 22.7778 24.6216C21.5384 25.4584 20.393 26.3306 19.375 27.2126C18.6678 26.5759 18.0316 25.9365 17.4792 25.3047ZM20.7199 35.5751C18.0302 36.1057 16.1509 35.8269 15.5638 34.81C14.9767 33.7932 15.6748 32.0262 17.4791 29.9622C18.0314 29.3303 18.6677 28.691 19.3748 28.054C20.3929 28.9359 21.5383 29.8083 22.7776 30.645C22.8825 32.1367 23.0653 33.5649 23.32 34.8875C22.4151 35.1814 21.5432 35.4127 20.7199 35.5751ZM31.2346 37.9038C30.3493 40.4985 29.1681 41.9866 27.9939 41.9866C27.0807 41.9866 26.1634 41.0864 25.3842 39.4657C25.5772 39.2924 25.6988 39.041 25.6988 38.7612C25.6988 38.2385 25.2752 37.8147 24.7525 37.8147C24.7428 37.8147 24.7332 37.8152 24.7237 37.8155C24.4652 37.0451 24.2395 36.2045 24.0487 35.3081C25.3215 34.8674 26.6496 34.3117 27.9939 33.6567C29.3383 34.3117 30.6664 34.8674 31.9392 35.3081C31.7412 36.2388 31.5056 37.1097 31.2346 37.9038ZM40.4241 34.81C40.0324 35.4886 39.0652 35.8386 37.6654 35.8386C36.9678 35.8385 36.1626 35.7516 35.268 35.5751C34.4447 35.4127 33.5728 35.1814 32.6678 34.8876C32.9225 33.565 33.1053 32.1368 33.2102 30.6451C34.4496 29.8084 35.595 28.9361 36.613 28.0541C37.32 28.691 37.9562 29.3305 38.5087 29.9623C38.7508 30.2392 38.9728 30.5109 39.1747 30.776C39.0563 30.934 38.9862 31.1302 38.9862 31.3429C38.9862 31.8656 39.4099 32.2892 39.9326 32.2892C40.0008 32.2892 40.0674 32.2819 40.1316 32.2681C40.6658 33.3201 40.7763 34.2 40.4241 34.81Z" fill="#FFFFFE"/>
</svg>
