<svg width="55" height="56" viewBox="0 0 55 56" fill="none" xmlns="http://www.w3.org/2000/svg">
<path fill-rule="evenodd" clip-rule="evenodd" d="M27.4902 0.233765C42.5646 0.233765 54.8896 12.5587 54.8896 27.6332C54.8896 42.7075 42.5647 55.0326 27.4902 55.0326C12.4159 55.0326 0.0908203 42.7075 0.0908203 27.6332C0.0908203 12.5588 12.4159 0.233765 27.4902 0.233765Z" fill="#6366F1"/>
<path fill-rule="evenodd" clip-rule="evenodd" d="M27.4905 18.3157C23.324 18.3157 20.7206 20.3864 19.6786 24.5278C21.2411 22.4571 23.0638 21.6807 25.1468 22.1981C26.3352 22.4932 27.185 23.3504 28.1249 24.2994C29.6568 25.8448 31.4299 27.6332 35.3019 27.6332C39.4678 27.6332 42.0718 25.5625 43.1133 21.4217C41.5514 23.4924 39.7286 24.2688 37.6457 23.7508C36.4567 23.4557 35.6068 22.5985 34.667 21.6501C33.1351 20.1035 31.3626 18.3157 27.4905 18.3157ZM19.6786 27.6332C15.5127 27.6332 12.9087 29.7039 11.8672 33.8453C13.4297 31.7746 15.2524 30.9983 17.3348 31.5157C18.5238 31.8108 19.3736 32.6679 20.3135 33.617C21.8454 35.1623 23.6179 36.9508 27.4905 36.9508C31.6564 36.9508 34.2604 34.8807 35.3019 30.7393C33.7394 32.81 31.9167 33.5864 29.8337 33.069C28.6453 32.7733 27.7955 31.9161 26.8556 30.9677C25.3237 29.4223 23.5506 27.6332 19.6786 27.6332Z" fill="#FAFAFA"/>
</svg>
