<svg width="56" height="55" viewBox="0 0 56 55" fill="none" xmlns="http://www.w3.org/2000/svg">
<path d="M27.9947 54.9525C43.1273 54.9525 55.3947 42.6851 55.3947 27.5525C55.3947 12.4199 43.1273 0.152466 27.9947 0.152466C12.8621 0.152466 0.594727 12.4199 0.594727 27.5525C0.594727 42.6851 12.8621 54.9525 27.9947 54.9525Z" fill="#0284C7"/>
<path d="M36.1151 13.3528L23.3351 25.7428L15.6451 19.8228L13.9951 20.7228V34.3828L15.6451 35.2828L23.3351 29.3628L36.1151 41.7528L41.9951 39.3728V15.7328L36.1151 13.3528ZM16.4851 30.7328V24.3728L19.9951 27.5528L16.4851 30.7328ZM35.1351 32.9028L27.9951 27.5528L35.1351 22.2028V32.9028Z" fill="white"/>
</svg>
